<svg preserveAspectRatio="none" overflow="visible" style="display: block;" width="158" height="158" viewBox="0 0 158 158" fill="none" xmlns="http://www.w3.org/2000/svg">
<g id="Logo project univeristy vector 1" clip-path="url(#clip0_0_433)">
<path id="Vector" d="M126.919 94.3716C126.74 94.6171 121.817 95.3384 120.967 95.6508C120.758 95.7251 120.579 95.7474 120.519 96.0077L117.991 105.735L118.133 106.241L121.191 107.535L118.998 116.288C118.625 116.355 118.461 116.228 118.192 116.005C117.297 115.254 115.544 111.878 114.649 111.632C113.754 111.387 109.809 113.454 109.495 113.134L111.651 104.367C112.553 103.734 114.448 105.467 115.142 104.649L117.215 96.558L105.93 98.9229C105.594 97.4133 107.407 94.4906 106.818 93.2041C106.743 93.0405 104.684 90.869 104.349 90.5343C88.6256 74.5752 72.9621 67.3244 50.0262 70.3363C48.9596 70.4776 46.0209 70.8494 45.2004 71.251C44.0144 71.8385 44.268 74.3 43.2984 74.0323L27.9258 58.1698L85.202 43.698L115.328 79.7957C115.985 80.2196 116.76 79.647 117.514 79.5875C120.467 79.357 123.824 79.9965 123.764 83.6331C123.734 85.2319 122.466 87.2622 122.802 88.7272C122.973 89.4634 125.838 92.3786 126.487 93.3454C126.71 93.6726 126.994 93.9478 126.919 94.394V94.3716ZM120.378 85.4922C120.877 83.6331 120.795 82.6737 118.595 83.2166C118.364 83.41 118.364 83.4546 118.498 83.7149C118.655 84.0123 120.072 85.7079 120.378 85.4922ZM117.566 88.69C114.664 89.1065 115.172 94.1188 117.909 93.9924C120.945 93.8585 120.713 88.2289 117.566 88.69Z" fill="#FF0100"/>
<path id="Vector_2" d="M56.7914 72.5226C74.0884 71.5931 85.2393 76.36 97.7253 87.8571C99.0605 89.0842 102.119 91.858 103.073 93.1818C103.894 94.3196 103.245 95.5615 102.954 96.8258C102.066 100.611 100.873 104.367 99.8138 108.1C99.5602 108.442 99.2246 108.442 98.874 108.241C84.8291 99.3171 70.3366 93.2264 53.9123 90.0956C52.5324 89.8353 44.1338 88.7272 43.7758 88.3628C43.4177 87.9984 43.5967 87.3365 43.6713 86.868C44.1114 84.0198 45.7225 78.6877 46.6474 75.8245C46.9681 74.828 46.998 74.1141 48.087 73.7051C50.0039 72.9837 54.6358 72.6416 56.8063 72.5301L56.7914 72.5226Z" fill="#FF0100"/>
<g id="Group 6">
<path id="Vector_3" d="M16.3125 128.848C14.6045 127.19 12.695 123.761 11.882 121.515C11.6209 120.787 11.427 119.314 11.1883 118.853C11.0093 118.518 9.89048 117.938 9.51009 117.567C7.50367 115.573 6.28042 113.104 5.97461 110.279C6.0492 109.974 7.77218 109.542 8.19733 109.349C12.9784 107.177 17.6402 103.98 21.8619 100.901C24.8827 103.586 26.8817 106.977 28.2242 110.762C28.4331 111.342 28.366 112.115 28.7165 112.643C29.0149 113.09 30.2829 113.774 30.8125 114.309C32.3266 115.841 33.52 118.318 33.4529 120.504C33.3857 120.697 30.4619 121.828 29.9099 122.103C25.83 124.163 21.4367 126.989 18.0355 130.008C17.7744 130.127 16.5661 129.086 16.32 128.848H16.3125ZM11.4941 118.853C13.5005 117.678 19.5571 113.67 20.1091 111.558C20.2806 110.896 20.206 110.115 19.3632 110.204C17.9385 110.353 15.589 112.539 14.6567 113.625C14.1271 114.227 11.1286 118.399 11.4941 118.861V118.853ZM28.5151 112.733C25.9717 114.265 22.9061 116.265 20.9892 118.548C19.6541 120.147 18.8411 122.43 21.847 120.987C24.465 119.731 28.0452 115.626 28.5151 112.733Z" fill="#FF0100"/>
<path id="Vector_4" d="M40.3965 24.8907C40.3443 25.2254 40.8739 25.1064 41.0678 25.0692C43.0742 24.7271 46.192 23.1728 47.7211 21.8268C48.1239 21.4773 49.5336 19.7222 49.7723 19.7668C52.2486 21.7301 53.6061 24.7122 51.3834 27.4564C47.7435 31.9556 42.8505 28.7875 39.7998 25.4782C40.3369 27.9398 42.3358 29.7023 44.0663 31.3978L44.0812 31.606C42.2314 34.5807 39.315 37.0051 35.6527 37.1166C34.8696 34.5435 33.2212 32.2977 31.7294 30.0741C30.1034 27.6572 28.0224 24.6081 26.0532 22.511C24.8822 21.2616 24.0767 21.8565 25.643 19.9527C29.1188 15.7287 41.2543 7.57809 45.7072 13.9662C48.4893 17.9523 44.1931 23.3811 40.3965 24.8907ZM39.5984 25.0841C39.4418 22.8382 38.9271 19.157 36.6075 18.101C35.7124 17.692 34.4966 17.93 34.4742 19.0603C34.4369 20.6369 38.2559 24.1842 39.5984 25.0841Z" fill="#FF0100"/>
<path id="Vector_5" d="M60.9457 1.85196C67.0843 1.28677 71.8356 4.43249 72.8127 10.6347C73.7078 16.3535 71.1345 20.9643 65.6448 22.9201C48.6238 28.9885 42.5672 3.55496 60.9457 1.85196ZM59.9462 6.96097C58.089 7.34024 58.4619 10.5083 58.7006 11.8692C58.9766 13.4606 60.6026 19.0753 62.8253 18.7333C64.9287 18.406 64.0337 13.4383 63.698 12.0179C63.3325 10.4413 62.1093 6.51477 59.9388 6.96097H59.9462Z" fill="#FF0100"/>
<path id="Vector_6" d="M110.294 15.6173C110.294 17.179 109.331 18.406 108.884 19.8265C111.741 21.2692 111.547 25.6717 108.608 26.869C104.327 28.6092 94.2572 24.2513 92.2284 20.0867C90.4681 16.4725 93.1607 12.8731 96.8155 12.2559C96.0473 10.7165 95.5997 9.40764 95.8459 7.63771C96.8454 0.394369 110.823 5.48107 113.747 9.0953C116.268 12.2038 114.232 16.0114 110.286 15.6173H110.294ZM110.286 15.4165C110.301 13.3045 107.989 11.7353 106.184 11.1255C104.953 10.7091 103.812 10.3 103.409 11.9287C103.499 13.8473 108.72 15.0521 110.286 15.4165ZM108.503 19.5587C107.303 19.3802 106.258 18.5176 105.132 18.0788C104.148 17.6921 101.626 16.7625 100.963 17.8632C99.5827 20.176 104.2 21.2543 105.826 21.1279C106.743 21.0609 108.28 20.5255 108.503 19.5513V19.5587Z" fill="#FF0100"/>
<path id="Vector_7" d="M25.1511 41.4742C24.8752 41.7048 26.0984 42.4856 26.2774 42.6195C27.5156 43.5565 29.2833 44.1514 30.2903 44.9323C30.9541 45.4528 30.2306 46.8138 29.9397 47.5277C28.8955 50.0264 27.1576 52.3615 24.6216 53.4845C24.4053 53.4993 21.9513 51.1345 21.4889 50.7552C17.7296 47.7062 13.2916 44.6422 8.92076 42.56L8.71191 42.1658C10.3827 36.6181 16.5884 27.4709 23.2268 28.2964C25.6882 28.6013 28.53 30.5795 29.5518 32.8476C31.1033 36.276 29.7085 41.7717 25.1586 41.4742H25.1511ZM24.7558 41.4668C24.2262 39.8307 22.7196 38.2541 21.377 37.2427C20.3029 36.4321 18.5053 35.153 17.215 36.0231C16.3199 37.1386 18.7962 38.9978 19.6242 39.5779C21.1458 40.6264 22.8837 41.3775 24.7558 41.4668Z" fill="#FF0100"/>
<path id="Vector_8" d="M128.351 31.2566C128.008 31.9407 128.194 32.7365 128.053 33.4281C126.568 40.6268 119.721 38.9833 115.432 35.2575C104.356 25.6344 116.551 10.4561 128.88 18.0936C135.019 21.9012 137.033 29.3379 128.351 31.2566ZM123.905 23.9463C118.863 24.4966 118.088 32.6026 125.017 31.9705C125.576 31.9184 127.605 31.4722 127.993 31.1896C128.463 30.8475 128.373 28.8025 128.314 28.1406C128.105 25.7534 126.501 23.6637 123.905 23.9463Z" fill="#FF0100"/>
<path id="Vector_9" d="M52.4729 135.035C53.1516 134.797 53.6066 134.292 54.3152 134.016C57.4926 132.789 62.1171 135.221 61.9828 138.887C61.7964 143.9 54.1958 150.37 49.6087 151.627C48.0125 152.065 45.3944 150.779 43.9549 149.946C42.1797 148.92 42.0454 148.749 41.3741 146.793C39.8973 142.45 39.9421 136.56 42.0007 132.395C44.9171 126.483 52.0701 129.361 52.4729 135.035ZM52.4729 135.437C51.727 135.734 50.8319 136.679 50.2874 137.303C49.0493 138.739 46.6401 142.643 47.4232 144.51C48.2064 146.376 50.183 144.294 50.7872 143.335C51.2571 142.598 52.4654 139.653 52.4654 138.887V135.429L52.4729 135.437Z" fill="#FF0100"/>
<path id="Vector_10" d="M16.7753 79.5948C17.1483 79.5353 17.9091 80.8145 18.103 81.1714C23.1526 90.3334 11.2409 88.8163 6.54183 91.1143C5.57218 91.5902 5.02023 92.5198 5.78103 93.4568C6.35536 94.1633 7.36976 94.0295 8.20514 93.9551C10.3085 93.7617 14.9703 92.5867 17.0364 91.9026C17.9389 91.6051 18.7967 91.2779 19.5127 90.6235C21.6161 93.2932 23.451 97.7032 19.4157 99.5995C17.7823 100.366 10.1966 102.113 8.43637 102.076C1.97704 101.935 -1.08108 93.4494 0.351016 88.095C2.29777 80.7996 11.5914 82.8819 16.7753 79.5874V79.5948Z" fill="#FF0100"/>
<path id="Vector_11" d="M116.969 125.814C120.564 125.345 122.071 128.684 120.393 131.57C123.787 133.027 127.359 134.426 126.897 138.865C126.464 143.074 119.826 148.555 115.88 149.396C112.442 150.124 110.443 147.812 111.375 144.51C111.479 144.13 112.009 143.64 111.785 143.312C106.422 141.691 104.819 137.363 107.675 132.529C109.294 129.8 113.777 126.223 116.969 125.806V125.814ZM120.184 131.488C118.431 130.744 113.918 131.726 113.836 133.957C113.732 136.582 117.976 133.89 118.908 133.065C119.125 132.871 120.393 131.704 120.191 131.481L120.184 131.488ZM112.069 143.528C114.523 144.145 117.954 143.223 118.58 140.509C117.491 138.493 114.978 140.323 113.754 141.349C113.441 141.609 111.733 143.193 112.076 143.521L112.069 143.528Z" fill="#FF0100"/>
<path id="Vector_12" d="M78.631 145.916C78.6459 147.284 78.5564 148.675 78.0268 149.954C75.9682 150.043 73.9245 149.165 71.7912 149.463C70.0384 149.708 69.8296 151.791 71.7167 152.274C74.0065 152.861 76.8856 152.46 78.1312 150.266C81.5026 151.069 82.0844 155.546 78.9069 157.152C75.5505 158.848 68.1588 157.777 64.9366 155.866C60.521 153.256 61.2669 148.623 65.3394 146.183C63.9297 144.495 62.9078 142.829 63.6611 140.569C65.2648 135.705 76.2218 136.999 79.623 139.059C83.0242 141.119 82.4723 145.239 78.6235 145.916H78.631ZM78.4072 145.901C77.9224 143.521 74.648 142.718 72.552 142.926C70.4561 143.134 70.9708 145.023 72.8951 145.566C73.1413 145.633 74.3869 145.901 74.5435 145.901H78.4072Z" fill="#FF0100"/>
<path id="Vector_13" d="M158 86.8755C157.754 89.1734 158.037 94.7956 154.934 95.1674C153.86 95.2938 151.921 94.8253 151.22 95.0113C150.601 95.1674 148.37 96.9894 147.349 97.4802C144.469 98.8486 140.389 99.5179 137.734 97.3092C134.795 94.8625 136.563 89.047 139.785 87.5671C137.607 85.1799 138.018 80.6361 140.472 78.5836C141.986 77.3194 143.686 77.4607 145.484 77.944C148.557 78.7621 150.265 80.8369 151.943 83.3431C152.353 83.9603 153.435 86.1988 153.741 86.4814C153.845 86.578 154.628 86.8755 154.733 86.8755H158ZM148.05 89.9766C149.258 88.7644 147.878 87.4481 146.677 87.0168C144.574 86.2434 142.03 86.7268 139.987 87.4704C139.86 87.9315 140.106 87.8051 140.24 87.9166C141.665 89.1883 146.439 91.5904 148.05 89.9766Z" fill="#FF0100"/>
<path id="Vector_14" d="M94.8459 148.459C95.1591 146.168 96.3675 143.536 94.9354 141.364C94.1149 140.115 92.4218 140.234 92.3472 141.877C92.2204 144.569 94.2492 146.473 94.6146 148.407C94.7265 149.002 94.4655 149.373 94.4953 149.738C94.6743 151.731 95.2934 153.702 96.2108 155.464C93.6152 157.442 90.117 158.416 86.9545 157.308C86.8053 151.322 85.2315 145.187 83.2549 139.564C83.3891 139.274 84.6422 138.717 85.0152 138.546C89.4159 136.523 100.962 134.084 103.595 139.631C106.228 145.179 99.3212 148.526 94.8459 148.451V148.459Z" fill="#FF0100"/>
<path id="Vector_15" d="M138.749 29.4791C140.569 29.375 141.964 31.5986 142.918 32.9223C145.775 36.8712 148.117 41.5117 150.653 45.6911C149.549 46.9702 147.371 48.2568 145.634 47.9816C144.306 47.7659 143.165 45.3267 142.359 44.3302L142.091 44.2633C138.533 46.3976 134.967 48.5096 131.768 51.1571C131.365 51.4843 130.738 52.4511 130.216 52.3172C130.03 52.2651 128.344 50.5547 128.105 50.2572C126.718 48.5617 125.666 46.5761 126.554 44.3823C127.643 41.6976 135.035 38.8494 137.317 36.7448C137.548 36.3283 136.944 35.5846 136.698 35.1831C136.034 34.1122 135.124 33.2049 134.453 32.134C135.46 31.1598 137.295 29.5684 138.742 29.4866L138.749 29.4791Z" fill="#FF0100"/>
<path id="Vector_16" d="M81.9725 10.4784C82.1664 9.49677 82.7183 6.29899 81.9725 5.63713C81.8307 5.5107 81.4354 5.44377 81.2266 5.39172C80.4434 5.21324 79.4439 5.2058 78.6384 5.10912C77.7582 3.54742 77.9894 2.03033 78.6384 0.431441L83.8595 -0.00732422C85.6049 0.36451 87.2458 0.0149858 88.9614 0.647105C91.8181 1.68824 91.3631 3.62178 91.2885 6.2395C91.2139 8.85722 90.9603 14.7768 90.1249 16.926C86.8804 25.2774 71.7166 21.864 74.1855 13.4754C75.2297 9.94297 78.8472 9.3406 81.965 10.4784H81.9725ZM82.0694 10.6792C81.6592 10.6792 79.5633 16.6137 81.868 16.6137C83.7775 16.6137 83.8894 11.5419 82.0694 10.6792Z" fill="#FF0100"/>
<path id="Vector_17" d="M138.204 105.029C142.329 106.843 146.163 109.513 150.661 110.376C150.362 113.923 148.401 118.66 143.985 117.135L134.699 112.361C134.012 112.302 132.543 116.109 132.446 116.868C130.798 116.741 127.777 115.544 127.695 113.618C127.628 112.064 129.798 107.966 130.574 106.412C132.096 103.37 133.886 100.448 135.422 97.4208L135.683 97.3613C136.399 97.7257 137.175 97.9414 137.861 98.3578C141.21 100.395 139.316 102.27 138.197 105.029H138.204Z" fill="#FF0100"/>
<path id="Vector_18" d="M140.353 126.974C139.89 130.96 135.713 135.251 131.775 131.875L123.936 125.063C123.399 124.885 122.944 125.792 122.407 125.926C121.333 126.186 119.491 124.461 119.065 123.494C120.609 120.452 123.876 114.317 128.001 117.277C130.94 119.389 133.67 122.416 136.638 124.654C137.802 125.531 138.951 126.491 140.345 126.974H140.353Z" fill="#FF0100"/>
<path id="Vector_19" d="M31.6629 141.527C27.4039 140.672 23.5328 137.564 26.6581 133.079C28.5973 130.291 31.4317 127.799 33.3784 124.966C33.4978 124.624 32.5281 124.103 32.379 123.776C31.924 122.78 33.9901 120.177 34.9373 120.229C35.4296 120.251 37.9358 121.85 38.4877 122.244C39.6811 123.099 41.5981 124.661 41.9039 126.141C42.2097 127.621 41.8069 128.082 40.9939 129.205C38.0402 133.303 33.7887 136.835 31.6704 141.527H31.6629Z" fill="#FF0100"/>
<path id="Vector_20" d="M94.8467 148.66C98.5164 149.433 102.276 149.247 105.535 147.276C106.632 149.931 107.049 153.062 104.088 154.616C99.2399 157.16 96.1445 152.78 94.8467 148.66Z" fill="#FF0100"/>
<path id="Vector_21" d="M8.91361 46.8065C5.35576 54.7266 2.76009 63.2713 1.98437 71.9723C1.71586 74.9544 2.07388 78.4124 1.58906 81.2458C1.50701 81.7292 1.26833 81.7961 0.798422 81.7366C0.328517 69.6669 2.8123 57.5748 7.92159 46.6875L8.91361 46.7991V46.8065Z" fill="#FF0100"/>
<path id="Vector_22" d="M150.675 50.9487C151.6 53.7524 152.645 56.5337 153.39 59.3968C155.374 66.9674 156.24 74.9172 155.822 82.7332H154.83C155.315 80.6211 154.912 78.4347 154.823 76.3227C154.785 75.4675 154.89 74.6049 154.823 73.7496C154.256 66.1196 152.421 58.5565 149.721 51.4321L150.661 50.9487H150.675Z" fill="#FF0100"/>
<path id="Vector_23" d="M15.8205 50.7703C15.9473 50.9637 15.8056 51.3132 15.7459 51.5363C15.1492 53.7227 13.7544 56.333 13.016 58.6904C11.017 65.1083 9.94296 71.7046 9.85345 78.4423C9.80124 78.9331 9.39847 79.186 8.91364 79.1711C8.80922 69.31 11.0543 59.5159 15.0597 50.5547L15.8205 50.7703Z" fill="#FF0100"/>
<path id="Vector_24" d="M147.707 76.0179L146.707 75.6907C146.297 67.0939 144.156 58.6235 140.599 50.815L141.27 50.168C145.253 58.1401 147.244 67.1162 147.699 76.0179H147.707Z" fill="#FF0100"/>
</g>
</g>
<defs>
<clipPath id="clip0_0_433">
<rect width="158" height="158" fill="white"/>
</clipPath>
</defs>
</svg>
